<svg width="242" height="202" viewBox="0 0 242 202" fill="none" xmlns="http://www.w3.org/2000/svg">
<path d="M81.9298 91.2853C89.2312 91.2853 95.1506 85.6356 95.1506 78.6671C95.1506 71.6976 89.2312 66.0479 81.9298 66.0479C74.6285 66.0479 68.709 71.6976 68.709 78.6671C68.709 85.6356 74.6285 91.2853 81.9298 91.2853Z" fill="#F7F7F7"/>
<path d="M41.166 35.1682H132.254V39.9251H52.7942C48.1222 39.9251 43.496 40.803 39.1798 42.5096C34.8634 44.2161 30.9415 46.7169 27.638 49.8705C24.3344 53.0232 21.7139 56.7665 19.9261 60.8864C18.1382 65.0063 17.2179 69.421 17.218 73.8804V127.92H7.25103C6.8104 127.92 6.38786 127.753 6.07637 127.456C5.76489 127.158 5.58984 126.756 5.58984 126.334V69.1243C5.58984 64.665 6.51 60.2494 8.2979 56.1295C10.0858 52.0096 12.7063 48.2663 16.0098 45.1136C19.3134 41.9609 23.2352 39.4592 27.5516 37.7526C31.8679 36.047 36.4941 35.1682 41.166 35.1682Z" fill="#F7F7F7"/>
<path d="M58.6875 199.968V127.716H80.8646V199.968C80.8637 200.453 80.6614 200.919 80.3016 201.262C79.9418 201.607 79.4536 201.799 78.945 201.8H60.607C60.0974 201.799 59.6102 201.607 59.2504 201.262C58.8905 200.919 58.6881 200.453 58.6875 199.968Z" fill="#484848"/>
<path d="M0.898438 126.292V67.5406C0.909524 58.1875 4.80712 49.2205 11.7362 42.6073C18.6653 35.994 28.06 32.274 37.8593 32.2629H131.827V128.327H3.03079C2.46549 128.326 1.92353 128.112 1.52374 127.73C1.12396 127.349 0.899118 126.832 0.898438 126.292ZM130.974 33.0775H37.8593C28.2862 33.0878 19.1083 36.7213 12.339 43.1829C5.56993 49.6436 1.76219 58.4033 1.7514 67.5406V126.292C1.75179 126.616 1.88667 126.926 2.12658 127.155C2.36639 127.384 2.69159 127.513 3.03079 127.513H130.974V33.0775Z" fill="#484848"/>
<path d="M81.93 85.1799C79.8947 85.1771 77.9439 84.4052 76.5046 83.0316C75.0653 81.658 74.2562 79.7952 74.2533 77.8524V25.3427C74.2533 25.0191 74.1181 24.7094 73.8789 24.4797C73.6387 24.2509 73.3129 24.1226 72.9745 24.1216H43.1207C42.5553 24.1216 42.0134 23.9068 41.6136 23.5255C41.2138 23.1433 40.989 22.6262 40.9883 22.0868V2.95484C40.989 2.41544 41.2138 1.89836 41.6136 1.51706C42.0134 1.13483 42.5553 0.920928 43.1207 0.919998H87.4741C88.0401 0.920928 88.5818 1.13483 88.9815 1.51706C89.3812 1.89836 89.6058 2.41544 89.6068 2.95484V77.8524C89.6048 79.7952 88.7948 81.658 87.3555 83.0316C85.9162 84.4052 83.9654 85.1771 81.93 85.1799Z" fill="#DC5859"/>
<path d="M135.241 31.4491C141.675 31.4361 147.85 33.8634 152.409 38.1963C156.968 42.5291 159.536 48.4132 159.55 54.554V121.436H207.315C209.234 121.432 211.075 122.157 212.436 123.448C213.795 124.741 214.562 126.496 214.566 128.327H110.932V54.554C110.944 48.4132 113.514 42.5291 118.073 38.1963C122.632 33.8634 128.807 31.4361 135.241 31.4491Z" fill="#484848"/>
<path d="M129.408 69.5354L134.441 89.3816L232.906 66.631L227.873 46.7848C227.813 46.5421 227.688 46.318 227.512 46.1338C227.336 45.9487 227.114 45.8092 226.867 45.7283C226.685 45.6669 226.492 45.64 226.298 45.6465L169.381 17.5186C169.048 17.3559 168.665 17.3131 168.3 17.3968C167.936 17.4796 167.615 17.6851 167.396 17.9743L139.964 54.4843L129.624 68.252C129.604 68.2762 129.591 68.3041 129.585 68.3329C129.578 68.3627 129.578 68.3934 129.585 68.4222C129.375 68.757 129.31 69.1569 129.408 69.5354Z" fill="#FDFDFD"/>
<path d="M129.583 68.4222C129.588 68.4482 129.599 68.4724 129.613 68.4947C129.628 68.517 129.647 68.5356 129.671 68.5505C129.697 68.5682 129.727 68.5803 129.759 68.5868C129.79 68.5924 129.823 68.5924 129.856 68.5859C129.907 68.5729 129.952 68.5431 129.983 68.5012L130.018 68.4547L130.557 67.7358L140.335 54.7242L167.758 18.2226C167.914 18.0162 168.144 17.8692 168.404 17.8097C168.663 17.7502 168.937 17.7818 169.175 17.899L225.651 45.8092L226.158 46.0603C226.178 46.0678 226.2 46.0752 226.221 46.0808C226.259 46.0743 226.298 46.0706 226.337 46.0706C226.389 46.0538 226.434 46.0176 226.46 45.9711C226.474 45.946 226.483 45.919 226.486 45.8911C226.488 45.8632 226.485 45.8353 226.476 45.8083C226.467 45.7813 226.454 45.7562 226.435 45.7348C226.416 45.7135 226.393 45.6958 226.367 45.6828L226.297 45.6465L169.38 17.5186C169.046 17.3559 168.662 17.3131 168.299 17.3968C167.935 17.4796 167.614 17.6851 167.394 17.9743L139.962 54.4843L129.621 68.252C129.603 68.2762 129.59 68.3041 129.583 68.3329C129.576 68.3627 129.576 68.3934 129.583 68.4222Z" fill="#484848"/>
<path d="M158.562 71.2596L160.754 71.4921L177.02 73.2117L187.805 74.3509L188.442 74.4188L201.898 64.3869L202.414 64.0028L205.592 61.6332L216.899 53.2046L216.967 52.6131L220.989 17.9669C221.043 17.4898 220.899 17.0118 220.584 16.637C220.27 16.2622 219.813 16.0213 219.313 15.9683L165.638 10.2925C165.139 10.2405 164.638 10.38 164.245 10.6794C163.852 10.9798 163.6 11.4151 163.544 11.8921L160.708 36.3307L159.135 49.8799L157.727 62.0015L157.075 67.6308L156.884 69.2611C156.83 69.7381 156.976 70.2162 157.291 70.5909C157.605 70.9657 158.062 71.2057 158.562 71.2596Z" fill="#DC5859"/>
<path d="M173.907 40.0776L197.157 42.5356L205.403 43.407C205.766 43.4452 206.135 43.4154 206.487 43.3178C206.838 43.2201 207.167 43.0574 207.453 42.8388C207.739 42.6203 207.977 42.3506 208.153 42.0446C208.33 41.7377 208.442 41.402 208.482 41.0541C208.522 40.7063 208.49 40.3548 208.388 40.0191C208.286 39.6833 208.116 39.3699 207.886 39.0974C207.658 38.8249 207.375 38.5971 207.054 38.4288C206.733 38.2604 206.381 38.1535 206.016 38.1153L195.762 37.031L174.523 34.7832C173.787 34.706 173.05 34.9106 172.473 35.3514C171.895 35.7931 171.525 36.4348 171.443 37.137C171.361 37.8391 171.575 38.5432 172.037 39.0946C172.499 39.6461 173.172 39.9995 173.907 40.0776Z" fill="#F7F7F7"/>
<path d="M172.582 49.8938C172.642 49.904 172.702 49.9143 172.763 49.9198L199.752 52.774L204.259 53.2511C204.994 53.3292 205.732 53.1246 206.31 52.6829C206.888 52.2411 207.258 51.5994 207.339 50.8973C207.42 50.1951 207.207 49.4911 206.744 48.9396C206.281 48.3881 205.608 48.0347 204.873 47.9575L198.357 47.2693L176.977 45.0085L173.379 44.6281C172.66 44.551 171.938 44.7444 171.365 45.1675C170.792 45.5898 170.414 46.2082 170.31 46.8927C170.207 47.5762 170.386 48.2719 170.81 48.8317C171.234 49.3925 171.87 49.7729 172.582 49.8938Z" fill="#F7F7F7"/>
<path d="M169.528 58.5986C169.75 58.9492 170.052 59.2459 170.413 59.4663C170.774 59.6876 171.184 59.8253 171.61 59.8708L182.672 61.0399L202.374 63.1231L202.378 63.1221L203.008 63.1891L206.186 60.8204C206.206 60.64 206.206 60.4586 206.187 60.2791C206.12 59.6746 205.839 59.1101 205.39 58.6786C204.942 58.248 204.351 57.9764 203.719 57.9085L200.983 57.6184L190.125 56.4708L182.314 55.644L172.223 54.5773C171.706 54.5224 171.183 54.607 170.713 54.8209C170.245 55.0348 169.847 55.3706 169.567 55.7881C169.286 56.2066 169.134 56.6921 169.127 57.1878C169.12 57.6844 169.259 58.1736 169.528 58.5986Z" fill="#FDFDFD"/>
<path d="M185.065 28.0788L190.851 28.6898L193.405 28.9604L197.265 29.3687C198 29.4459 198.738 29.2422 199.316 28.8005C199.894 28.3587 200.264 27.7161 200.345 27.0149C200.427 26.3127 200.213 25.6087 199.75 25.0572C199.287 24.5057 198.614 24.1523 197.879 24.0751L185.682 22.7862C184.947 22.708 184.209 22.9126 183.631 23.3535C183.053 23.7943 182.683 24.4369 182.601 25.1381C182.519 25.8403 182.733 26.5443 183.195 27.0958C183.657 27.6473 184.33 28.0007 185.065 28.0788Z" fill="#F7F7F7"/>
<path d="M137.764 42.8193L144.817 70.6263L156.588 72.7625L167.477 74.7406L179.16 76.8629L182.893 77.5408C183.111 77.5799 183.336 77.5743 183.552 77.525C183.768 77.4748 183.971 77.3818 184.147 77.2507L187.141 75.0187L189.037 73.6051L202.493 63.5741L193.938 29.8402C193.853 29.5045 193.669 29.1994 193.407 28.9613C193.177 28.7502 192.896 28.5986 192.589 28.5187C192.28 28.4396 191.958 28.435 191.647 28.5066L139.161 40.6338C138.673 40.7463 138.251 41.0402 137.989 41.4503C137.726 41.8595 137.646 42.3524 137.764 42.8193Z" fill="#DC5859"/>
<path d="M153.936 64.9403C154.11 65.6257 154.563 66.2181 155.194 66.5854C155.825 66.9528 156.584 67.0672 157.302 66.9016L188.101 59.7853C188.819 59.6179 189.439 59.1864 189.824 58.5837C190.209 57.9811 190.329 57.2575 190.155 56.5712C190.148 56.5377 190.137 56.5033 190.125 56.4708C189.929 55.8095 189.471 55.246 188.849 54.8991C188.227 54.5522 187.488 54.4489 186.788 54.6098L155.99 61.7262C155.272 61.8927 154.651 62.3251 154.266 62.9277C153.881 63.5304 153.761 64.2539 153.936 64.9403Z" fill="#FDFDFD"/>
<path d="M156.586 72.7625L167.476 74.7406L190.541 69.4117C191.261 69.2452 191.881 68.8128 192.266 68.2101C192.651 67.6075 192.77 66.884 192.596 66.1976C192.422 65.5113 191.97 64.9189 191.337 64.5506C190.706 64.1833 189.948 64.0698 189.228 64.2363L158.431 71.3517C157.787 71.4996 157.22 71.8623 156.833 72.3747C156.74 72.4965 156.657 72.6267 156.586 72.7625Z" fill="#FDFDFD"/>
<path d="M179.158 76.8629L182.892 77.5408C183.109 77.5799 183.334 77.5743 183.551 77.525C183.767 77.4748 183.969 77.3818 184.145 77.2507L187.139 75.0187L179.158 76.8629Z" fill="#FDFDFD"/>
<path d="M160.141 50.0296C160.315 50.7159 160.768 51.3074 161.399 51.6747C162.03 52.043 162.789 52.1565 163.509 51.9909L175.437 49.2344C176.156 49.068 176.775 48.6355 177.16 48.0329C177.545 47.4302 177.665 46.7067 177.492 46.0203C177.398 45.6521 177.223 45.307 176.977 45.0085C176.648 44.6058 176.203 44.3017 175.698 44.1334C175.191 43.965 174.645 43.9399 174.124 44.059L162.196 46.8155C161.477 46.982 160.857 47.4135 160.471 48.0161C160.085 48.6188 159.967 49.3432 160.141 50.0296Z" fill="#FDFDFD"/>
<path d="M167.476 74.7406L179.161 76.8629L182.893 77.5408C183.111 77.5799 183.335 77.5743 183.551 77.5241C183.767 77.4739 183.969 77.3809 184.145 77.2516L187.143 75.0177L186.09 75.2614L183.87 76.914C183.745 77.007 183.601 77.074 183.446 77.1093C183.292 77.1447 183.131 77.1493 182.976 77.1214L180.212 76.6192L168.527 74.497L167.476 74.7406ZM202.377 63.123L202.491 63.5722L203.01 63.1872L202.377 63.123ZM167.476 74.7406L179.161 76.8629L182.893 77.5408C183.111 77.5799 183.335 77.5743 183.551 77.5241C183.767 77.4739 183.969 77.3809 184.145 77.2516L187.143 75.0177L186.09 75.2614L183.87 76.914C183.745 77.007 183.601 77.074 183.446 77.1093C183.292 77.1447 183.131 77.1493 182.976 77.1214L180.212 76.6192L168.527 74.497L167.476 74.7406ZM167.476 74.7406L179.161 76.8629L182.893 77.5408C183.111 77.5799 183.335 77.5743 183.551 77.5241C183.767 77.4739 183.969 77.3809 184.145 77.2516L187.143 75.0177L186.09 75.2614L183.87 76.914C183.745 77.007 183.601 77.074 183.446 77.1093C183.292 77.1447 183.131 77.1493 182.976 77.1214L180.212 76.6192L168.527 74.497L167.476 74.7406ZM129.408 69.5354L142.592 121.52C142.69 121.904 142.944 122.236 143.298 122.441C143.651 122.648 144.076 122.711 144.478 122.618L239.907 100.569C240.31 100.476 240.657 100.234 240.873 99.8962C241.089 99.5586 241.155 99.1531 241.058 98.769L227.873 46.7848C227.813 46.5421 227.688 46.3179 227.512 46.1329C227.336 45.9487 227.114 45.8092 226.867 45.7283C226.685 45.6669 226.492 45.639 226.298 45.6465C226.073 45.653 225.852 45.7079 225.653 45.8083C225.56 45.8502 225.474 45.9022 225.394 45.9618L217.562 51.7994L206.188 60.2791L202.377 63.1203V63.123L202.375 63.124L188.401 73.5353L186.09 75.2614L183.87 76.914C183.745 77.007 183.601 77.073 183.446 77.1093C183.292 77.1447 183.131 77.1493 182.976 77.1214L180.212 76.6192L168.527 74.497L156.832 72.3738L131.217 67.7219C131 67.68 130.774 67.6847 130.558 67.7349C130.266 67.8028 130.002 67.9497 129.796 68.1571C129.716 68.238 129.646 68.3273 129.585 68.4222C129.375 68.756 129.31 69.156 129.408 69.5354ZM167.476 74.7406L179.161 76.8629L182.893 77.5408C183.111 77.5799 183.335 77.5743 183.551 77.5241C183.767 77.4739 183.969 77.3809 184.145 77.2516L187.143 75.0177L186.09 75.2614L183.87 76.914C183.745 77.007 183.601 77.074 183.446 77.1093C183.292 77.1447 183.131 77.1493 182.976 77.1214L180.212 76.6192L168.527 74.497L167.476 74.7406ZM167.476 74.7406L179.161 76.8629L182.893 77.5408C183.111 77.5799 183.335 77.5743 183.551 77.5241C183.767 77.4739 183.969 77.3809 184.145 77.2516L187.143 75.0177L186.09 75.2614L183.87 76.914C183.745 77.007 183.601 77.074 183.446 77.1093C183.292 77.1447 183.131 77.1493 182.976 77.1214L180.212 76.6192L168.527 74.497L167.476 74.7406ZM167.476 74.7406L179.161 76.8629L182.893 77.5408C183.111 77.5799 183.335 77.5743 183.551 77.5241C183.767 77.4739 183.969 77.3809 184.145 77.2516L187.143 75.0177L186.09 75.2614L183.87 76.914C183.745 77.007 183.601 77.074 183.446 77.1093C183.292 77.1447 183.131 77.1493 182.976 77.1214L180.212 76.6192L168.527 74.497L167.476 74.7406Z" fill="#FDFDFD"/>
<path d="M167.476 74.7406L179.161 76.8629L182.893 77.5408C183.111 77.5799 183.335 77.5743 183.551 77.5241C183.767 77.4739 183.969 77.3809 184.145 77.2516L187.143 75.0177L186.09 75.2614L183.87 76.914C183.745 77.007 183.601 77.073 183.446 77.1093C183.292 77.1447 183.131 77.1493 182.976 77.1214L180.212 76.6192L168.527 74.497L167.476 74.7406ZM202.377 63.123L202.491 63.5722L203.01 63.1872L202.377 63.123ZM167.476 74.7406L179.161 76.8629L182.893 77.5408C183.111 77.5799 183.335 77.5743 183.551 77.5241C183.767 77.4739 183.969 77.3809 184.145 77.2516L187.143 75.0177L186.09 75.2614L183.87 76.914C183.745 77.007 183.601 77.073 183.446 77.1093C183.292 77.1447 183.131 77.1493 182.976 77.1214L180.212 76.6192L168.527 74.497L167.476 74.7406ZM167.476 74.7406L179.161 76.8629L182.893 77.5408C183.111 77.5799 183.335 77.5743 183.551 77.5241C183.767 77.4739 183.969 77.3809 184.145 77.2516L187.143 75.0177L186.09 75.2614L183.87 76.914C183.745 77.007 183.601 77.073 183.446 77.1093C183.292 77.1447 183.131 77.1493 182.976 77.1214L180.212 76.6192L168.527 74.497L167.476 74.7406ZM130.019 68.4538L130.078 68.4957C130.087 68.4808 130.104 68.4668 130.117 68.451C130.246 68.3227 130.406 68.2269 130.584 68.172C130.761 68.1181 130.951 68.106 131.134 68.1385L156.588 72.7597L167.476 74.7406L179.161 76.8629L182.893 77.5408C183.111 77.5799 183.335 77.5743 183.551 77.5241C183.767 77.4739 183.969 77.3809 184.145 77.2516L187.143 75.0177L186.09 75.2614L183.87 76.914C183.745 77.007 183.601 77.073 183.446 77.1093C183.292 77.1447 183.131 77.1493 182.976 77.1214L180.212 76.6192L168.527 74.497L156.832 72.3738L131.217 67.7219C131 67.68 130.774 67.6847 130.558 67.7349L130.019 68.4538ZM129.408 69.5354L142.592 121.52C142.69 121.904 142.944 122.236 143.298 122.441C143.651 122.648 144.076 122.711 144.478 122.618L239.907 100.569C240.31 100.476 240.657 100.234 240.873 99.8962C241.089 99.5586 241.155 99.1531 241.058 98.769L227.873 46.7848C227.813 46.5421 227.688 46.3179 227.512 46.1329C227.336 45.9487 227.114 45.8092 226.867 45.7283C226.685 45.6669 226.492 45.639 226.298 45.6465C226.073 45.653 225.852 45.7079 225.653 45.8083C225.56 45.8502 225.474 45.9022 225.394 45.9618L217.562 51.7994L206.188 60.2791L202.377 63.1203V63.123L202.375 63.124L188.401 73.5353L186.09 75.2614L183.87 76.914C183.745 77.007 183.601 77.073 183.446 77.1093C183.292 77.1447 183.131 77.1493 182.976 77.1214L180.212 76.6192L168.527 74.497L156.832 72.3738L131.217 67.7219C131 67.68 130.774 67.6847 130.558 67.7349C130.266 67.8028 130.002 67.9497 129.796 68.1571C129.716 68.238 129.646 68.3273 129.585 68.4222C129.375 68.756 129.31 69.156 129.408 69.5354ZM129.842 69.435C129.803 69.2815 129.801 69.1225 129.835 68.9681C129.869 68.8137 129.939 68.6686 130.039 68.5431C130.048 68.5245 130.061 68.5087 130.078 68.4957C130.087 68.4808 130.104 68.4668 130.117 68.451C130.246 68.3227 130.406 68.2269 130.584 68.172C130.761 68.1181 130.951 68.106 131.134 68.1385L156.588 72.7597L167.476 74.7406L179.161 76.8629L182.893 77.5408C183.111 77.5799 183.335 77.5743 183.551 77.5241C183.767 77.4739 183.969 77.3809 184.145 77.2516L187.143 75.0177L189.038 73.6051L202.491 63.5722L203.01 63.1872L206.186 60.8194L217.496 52.3899L225.671 46.2956C225.796 46.2026 225.939 46.1366 226.092 46.1013C226.135 46.091 226.179 46.0845 226.223 46.0808C226.261 46.0743 226.299 46.0706 226.338 46.0706C226.469 46.0687 226.599 46.0892 226.722 46.1301C226.898 46.1887 227.057 46.2882 227.182 46.4202C227.308 46.5514 227.396 46.7113 227.441 46.8843L240.626 98.8685C240.661 99.0052 240.667 99.1466 240.644 99.2852C240.622 99.4237 240.571 99.5567 240.495 99.6758C240.418 99.7957 240.318 99.8999 240.199 99.9827C240.08 100.065 239.945 100.124 239.802 100.158L144.374 122.207C144.085 122.273 143.782 122.226 143.53 122.079C143.277 121.932 143.096 121.694 143.027 121.419L129.842 69.435ZM167.476 74.7406L179.161 76.8629L182.893 77.5408C183.111 77.5799 183.335 77.5743 183.551 77.5241C183.767 77.4739 183.969 77.3809 184.145 77.2516L187.143 75.0177L186.09 75.2614L183.87 76.914C183.745 77.007 183.601 77.074 183.446 77.1093C183.292 77.1447 183.131 77.1493 182.976 77.1214L180.212 76.6192L168.527 74.497L167.476 74.7406ZM167.476 74.7406L179.161 76.8629L182.893 77.5408C183.111 77.5799 183.335 77.5743 183.551 77.5241C183.767 77.4739 183.969 77.3809 184.145 77.2516L187.143 75.0177L186.09 75.2614L183.87 76.914C183.745 77.007 183.601 77.074 183.446 77.1093C183.292 77.1447 183.131 77.1493 182.976 77.1214L180.212 76.6192L168.527 74.497L167.476 74.7406ZM167.476 74.7406L179.161 76.8629L182.893 77.5408C183.111 77.5799 183.335 77.5743 183.551 77.5241C183.767 77.4739 183.969 77.3809 184.145 77.2516L187.143 75.0177L186.09 75.2614L183.87 76.914C183.745 77.007 183.601 77.074 183.446 77.1093C183.292 77.1447 183.131 77.1493 182.976 77.1214L180.212 76.6192L168.527 74.497L167.476 74.7406Z" fill="#484848"/>
<path d="M215.034 90.3562C214.819 89.5044 214.967 88.606 215.444 87.8583C215.923 87.1105 216.692 86.5739 217.585 86.3665L229.629 83.584C230.52 83.3812 231.459 83.5235 232.241 83.9802C233.022 84.4377 233.581 85.1715 233.797 86.0215C234.013 86.8706 233.867 87.7681 233.39 88.5148C232.915 89.2626 232.148 89.7992 231.258 90.0084L219.214 92.791C218.321 92.9965 217.379 92.8551 216.597 92.3985C215.813 91.9419 215.251 91.2081 215.034 90.3562Z" fill="#DC5859"/>
<path d="M81.9289 80.7019C83.5782 80.7019 84.9144 79.4269 84.9144 77.8524C84.9144 76.2788 83.5782 75.0038 81.9289 75.0038C80.2805 75.0038 78.9434 76.2788 78.9434 77.8524C78.9434 79.4269 80.2805 80.7019 81.9289 80.7019Z" fill="#FDFDFD"/>
</svg>
